<svg aria-hidden="true" style="position: absolute; width: 0; height: 0; overflow: hidden;" version="1.1" xmlns="http://www.w3.org/2000/svg" xmlns:xlink="http://www.w3.org/1999/xlink">
<defs>
<symbol id="icon-GH" viewBox="0 0 51 32">
<path d="M12.339 29.698c-2.455 0-4.612-0.565-6.471-1.695-1.847-1.13-3.293-2.734-4.339-4.813-1.033-2.090-1.549-4.563-1.549-7.419 0-2.892 0.523-5.378 1.568-7.456 1.057-2.090 2.503-3.694 4.339-4.812 1.835-1.13 3.925-1.695 6.271-1.695 1.458 0 2.819 0.219 4.083 0.656 1.276 0.425 2.406 1.039 3.391 1.841 0.997 0.802 1.817 1.75 2.461 2.844 0.656 1.082 1.1 2.285 1.331 3.609h-4.193c-0.255-0.814-0.596-1.537-1.021-2.169-0.425-0.644-0.936-1.191-1.531-1.641-0.596-0.462-1.27-0.808-2.023-1.039-0.741-0.243-1.568-0.365-2.479-0.365-1.531 0-2.911 0.395-4.138 1.185-1.227 0.778-2.2 1.926-2.917 3.445s-1.076 3.378-1.076 5.578c0 2.2 0.359 4.059 1.076 5.578s1.701 2.674 2.953 3.464c1.252 0.778 2.674 1.167 4.266 1.167 1.47 0 2.753-0.298 3.846-0.893 1.094-0.608 1.944-1.458 2.552-2.552s0.911-2.388 0.911-3.883l1.076 0.201h-7.766v-3.391h10.682v3.099c0 2.285-0.486 4.26-1.458 5.924-0.96 1.665-2.297 2.953-4.010 3.865-1.701 0.911-3.646 1.367-5.833 1.367zM26.503 29.333v-27.161h4.101v11.813h13.526v-11.813h4.102v27.161h-4.102v-11.831h-13.526v11.831h-4.101z"></path>
</symbol>
<symbol id="icon-IG" viewBox="0 0 35 32">
<path d="M6.289 2.172v27.161h-4.102v-27.161h4.102zM21.42 29.698c-2.455 0-4.612-0.565-6.471-1.695-1.847-1.13-3.293-2.734-4.339-4.813-1.033-2.090-1.55-4.563-1.55-7.419 0-2.892 0.523-5.378 1.568-7.456 1.057-2.090 2.503-3.694 4.339-4.812 1.835-1.13 3.925-1.695 6.271-1.695 1.458 0 2.819 0.219 4.083 0.656 1.276 0.425 2.406 1.039 3.391 1.841 0.997 0.802 1.817 1.75 2.461 2.844 0.656 1.082 1.1 2.285 1.331 3.609h-4.193c-0.255-0.814-0.595-1.537-1.021-2.169-0.425-0.644-0.936-1.191-1.531-1.641-0.595-0.462-1.27-0.808-2.023-1.039-0.741-0.243-1.568-0.365-2.479-0.365-1.531 0-2.911 0.395-4.138 1.185-1.227 0.778-2.2 1.926-2.917 3.445s-1.076 3.378-1.076 5.578c0 2.2 0.358 4.059 1.076 5.578s1.701 2.674 2.953 3.464c1.252 0.778 2.674 1.167 4.266 1.167 1.47 0 2.753-0.298 3.846-0.893 1.094-0.608 1.944-1.458 2.552-2.552s0.911-2.388 0.911-3.883l1.075 0.201h-7.766v-3.391h10.682v3.099c0 2.285-0.486 4.26-1.458 5.924-0.96 1.665-2.297 2.953-4.010 3.865-1.701 0.911-3.646 1.367-5.833 1.367z"></path>
</symbol>
<symbol id="icon-TG" viewBox="0 0 48 32">
<path d="M2.172 5.69v-3.518h21.036v3.518h-8.458v23.643h-4.083v-23.643h-8.495zM35.805 29.698c-2.455 0-4.612-0.565-6.471-1.695-1.847-1.13-3.293-2.734-4.339-4.813-1.033-2.090-1.549-4.563-1.549-7.419 0-2.892 0.523-5.378 1.568-7.456 1.057-2.090 2.504-3.694 4.338-4.812 1.835-1.13 3.925-1.695 6.271-1.695 1.458 0 2.819 0.219 4.083 0.656 1.276 0.425 2.406 1.039 3.391 1.841 0.997 0.802 1.817 1.75 2.461 2.844 0.656 1.082 1.1 2.285 1.331 3.609h-4.193c-0.255-0.814-0.595-1.537-1.021-2.169-0.425-0.644-0.936-1.191-1.531-1.641-0.595-0.462-1.27-0.808-2.023-1.039-0.741-0.243-1.568-0.365-2.479-0.365-1.531 0-2.911 0.395-4.138 1.185-1.227 0.778-2.199 1.926-2.917 3.445s-1.075 3.378-1.075 5.578c0 2.2 0.358 4.059 1.075 5.578s1.701 2.674 2.953 3.464c1.252 0.778 2.674 1.167 4.266 1.167 1.471 0 2.753-0.298 3.846-0.893 1.094-0.608 1.945-1.458 2.552-2.552s0.911-2.388 0.911-3.883l1.076 0.201h-7.766v-3.391h10.682v3.099c0 2.285-0.486 4.26-1.458 5.924-0.96 1.665-2.297 2.953-4.010 3.865-1.701 0.911-3.646 1.367-5.833 1.367z"></path>
</symbol>
<symbol id="icon-YT" viewBox="0 0 52 32">
<path d="M1.554 2.369h5.071l7.756 13.483h0.318l7.716-13.483h5.111l-10.759 17.997v11.634h-4.474v-11.633l-10.739-17.997zM28.362 6.207v-3.838h22.949v3.838h-9.227v25.793h-4.455v-25.793h-9.267z"></path>
</symbol>
<symbol id="icon-faq-down" viewBox="0 0 48 32">
<path fill="none" stroke="#fafafa" style="stroke: var(--color1, #fafafa)" stroke-linejoin="miter" stroke-linecap="butt" stroke-miterlimit="4" stroke-width="8" d="M44 6l-20 20-20-20"></path>
</symbol>

<symbol id="icon-arrow" viewBox="0 0 32 32">
<path fill="#FAFAFA" style="fill: var(--color1, #FAFAFA)" d="M19.269 13.554l-3.81 3.81 0.541 0.541 0.533-0.541-3.81-3.81-1.074 1.074 4.35 4.35 4.343-4.35-1.074-1.074z"></path>
<path fill="none" stroke="#FAFAFA" style="stroke: var(--color1, #FAFAFA)" stroke-linejoin="miter" stroke-linecap="butt" stroke-miterlimit="4" stroke-width="0.7619" d="M16 0.381c8.626 0 15.619 6.993 15.619 15.619s-6.993 15.619-15.619 15.619c-8.626 0-15.619-6.993-15.619-15.619s6.993-15.619 15.619-15.619z"></path>
</symbol>
<symbol id="icon-arrow-next" viewBox="0 0 32 32">
<path stroke-linejoin="miter" stroke-linecap="butt" stroke-miterlimit="4" stroke-width="0.4706" d="M16 0.235c8.707 0 15.765 7.058 15.765 15.765s-7.058 15.765-15.765 15.765c-8.707 0-15.765-7.058-15.765-15.765s7.058-15.765 15.765-15.765z"></path>
<path stroke-linejoin="round" stroke-linecap="round" stroke-miterlimit="4" stroke-width="0.9412" d="M10.98 16h10.039"></path>
<path stroke-linejoin="round" stroke-linecap="round" stroke-miterlimit="4" stroke-width="0.9412" d="M17.255 12.235l3.765 3.765-3.765 3.765"></path>
</symbol>
<symbol id="icon-arrow-prew" viewBox="0 0 32 32">
<path stroke-linejoin="miter" stroke-linecap="butt" stroke-miterlimit="4" stroke-width="0.4706" d="M16 31.765c-8.707 0-15.765-7.058-15.765-15.765s7.058-15.765 15.765-15.765c8.707 0 15.765 7.058 15.765 15.765s-7.058 15.765-15.765 15.765z"></path>
<path stroke-linejoin="round" stroke-linecap="round" stroke-miterlimit="4" stroke-width="0.9412" d="M21.020 16h-10.039"></path>
<path stroke-linejoin="round" stroke-linecap="round" stroke-miterlimit="4" stroke-width="0.9412" d="M14.745 19.765l-3.765-3.765 3.765-3.765"></path>
</symbol>
</defs>
</svg>

